<svg xmlns="http://www.w3.org/2000/svg" viewBox="0 0 186.351 81.7"><title>logo</title><path d="M28.815,40.766v-3.06l4.845-1.02v-25.5l-1.53,3.825L24.225,31.076l-4.08.255-7.9-16.575-1.275-3.57v25.5l4.845,1.02v3.06H2.04v-3.06l4.335-1.02V9.146L2.04,8.125v-2.8l11.475-.256,9.231,20.4L32.385,5.321,43.1,5.065v3.06L38.76,9.146v27.54l4.335,1.02v3.06Z" transform="translate(-2.04 -1.496)" fill="#003436"/><path d="M48.45,15.266a29.3,29.3,0,0,1,10.1-2.04q4.488,0,6.885,1.81t2.4,6.1V36.686l4.08,1.02v2.805l-7.905.255L62.934,37.2q-4.081,4.08-8.058,4.079t-5.967-1.988a7.661,7.661,0,0,1-1.989-5.662q0-7.9,11.73-7.9h4.08v-4.08q0-4.59-4.845-4.59a15.419,15.419,0,0,0-4.539.561l-.612.2-.714,3.826H48.705Zm14.28,13.77H59.16q-3.825,0-5.431.994a3.373,3.373,0,0,0-1.607,3.086,4.383,4.383,0,0,0,.943,3.034A3.488,3.488,0,0,0,55.794,37.2a5.41,5.41,0,0,0,1.76-.306,11.247,11.247,0,0,0,1.734-.765,10.031,10.031,0,0,0,1.5-.995,9.3,9.3,0,0,0,1.071-.994l.867-1.02Z" transform="translate(-2.04 -1.496)" fill="#003436"/><path d="M84.251,1.5v35.19l5.1,1.274v2.806H74.714V37.96l4.335-1.274V5.576l-4.335-1.02V1.75Z" transform="translate(-2.04 -1.496)" fill="#003436"/><path d="M100.417,1.5v35.19l5.1,1.274v2.806H90.88V37.96l4.335-1.274V5.576L90.88,4.556V1.75Z" transform="translate(-2.04 -1.496)" fill="#003436"/><path d="M109.6,15.266a29.3,29.3,0,0,1,10.1-2.04q4.488,0,6.885,1.81t2.4,6.1V36.686l4.08,1.02v2.805l-7.9.255-1.071-3.57q-4.082,4.08-8.058,4.079t-5.967-1.988a7.661,7.661,0,0,1-1.989-5.662q0-7.9,11.73-7.9h4.08v-4.08q0-4.59-4.845-4.59a15.419,15.419,0,0,0-4.539.561l-.612.2-.714,3.826h-3.315Zm14.28,13.77h-3.57q-3.825,0-5.432.994a3.374,3.374,0,0,0-1.606,3.086,4.383,4.383,0,0,0,.943,3.034,3.486,3.486,0,0,0,2.729,1.046,5.41,5.41,0,0,0,1.76-.306,11.247,11.247,0,0,0,1.734-.765,10.031,10.031,0,0,0,1.5-.995,9.3,9.3,0,0,0,1.071-.994l.867-1.02Z" transform="translate(-2.04 -1.496)" fill="#003436"/><path d="M145.042,13.736l.458,3.722q3.774-4.231,7.7-4.232a13.328,13.328,0,0,1,4.028.611l.562.154-.255,7.4h-3.316l-.764-3.825a8.989,8.989,0,0,0-7.395,3.978V36.686l5.1,1.274v2.806H136.626V37.96l4.335-1.274V17.815l-4.335-1.02v-2.8Z" transform="translate(-2.04 -1.496)" fill="#003436"/><path d="M184.056,1.5v35.19l4.335,1.02v2.805l-8.67.255-.408-2.908a11.432,11.432,0,0,1-8.415,3.417,8.984,8.984,0,0,1-7.624-3.544q-2.678-3.544-2.678-9.817,0-6.681,3.417-10.685t10.1-4a14.644,14.644,0,0,1,4.845.816V5.576l-4.335-1.02V1.75Zm-5.1,31.875V18.326a11.067,11.067,0,0,0-5.355-1.02q-7.65,0-7.65,10.2a13.777,13.777,0,0,0,1.556,7.089,5.22,5.22,0,0,0,4.819,2.6,6.763,6.763,0,0,0,4.233-1.326A11.479,11.479,0,0,0,178.956,33.371Z" transform="translate(-2.04 -1.496)" fill="#003436"/><path d="M23.65,68.576v5.16a8.838,8.838,0,0,1-2.795,6.987q-2.8,2.474-7.869,2.473-5.031,0-7.5-2.344A8.484,8.484,0,0,1,3.01,74.381a6.4,6.4,0,0,1,.559-2.688A9.431,9.431,0,0,1,4.945,69.5a10.924,10.924,0,0,1,1.72-1.655A17.5,17.5,0,0,1,8.213,66.77l.6-.344A6.268,6.268,0,0,1,7.2,65.759a7.576,7.576,0,0,1-1.656-1.268A6.492,6.492,0,0,1,4.257,62.6a6.206,6.206,0,0,1-.516-2.623,6.737,6.737,0,0,1,2.623-5.827q2.622-1.912,7.4-1.913a13.574,13.574,0,0,1,1.784.129q.967.129,1.935.322c.646.129,1.254.273,1.828.43s1.046.3,1.419.408l1.2.431-.215,6.02H18.963l-.9-3.44a13.424,13.424,0,0,0-4.535-.645q-5.4,0-5.4,4.429a4.284,4.284,0,0,0,.431,1.913A4.585,4.585,0,0,0,9.764,63.76a5.914,5.914,0,0,0,1.789,1.01,6.357,6.357,0,0,0,2.177.366H27.09v2.58Zm-4.3,5.375V68.576H13.545a6.069,6.069,0,0,0-2.279.43,6.387,6.387,0,0,0-1.913,1.182A5.57,5.57,0,0,0,8.02,71.994a5.431,5.431,0,0,0-.495,2.343,4.749,4.749,0,0,0,1.591,3.892A6.693,6.693,0,0,0,13.5,79.541,6.037,6.037,0,0,0,17.845,78.1,5.475,5.475,0,0,0,19.35,73.951Z" transform="translate(-2.04 -1.496)" fill="#003436"/><path d="M63,82.766v-2.58l4.085-.86v-21.5l-1.29,3.225L59.125,74.6l-3.44.215L49.02,60.835l-1.075-3.009v21.5l4.085.86v2.58H40.42v-2.58l3.655-.86V56.105l-3.655-.859V52.881l9.675-.215,7.783,17.2,8.127-16.985,9.03-.215v2.58l-3.655.859V79.326l3.655.86v2.58Z" transform="translate(-2.04 -1.496)" fill="#003436"/><path d="M99.545,59.976v19.35l3.655.86v2.365l-7.1.215-.429-3.01a14.222,14.222,0,0,1-4.085,2.515,10.684,10.684,0,0,1-3.87.925,6.4,6.4,0,0,1-5.16-2.021A8.5,8.5,0,0,1,80.84,75.5V63.416l-3.655-.86V60.19l7.955-.214V75.069a5.252,5.252,0,0,0,.9,3.375,3.362,3.362,0,0,0,2.753,1.1,6.883,6.883,0,0,0,3.4-.86A8.851,8.851,0,0,0,94.471,77l.774-.859V63.416l-3.655-.86V60.19Z" transform="translate(-2.04 -1.496)" fill="#003436"/><path d="M113.391,49.656v29.67l4.3,1.074v2.366H105.35V80.4L109,79.326V53.1l-3.654-.86V49.871Z" transform="translate(-2.04 -1.496)" fill="#003436"/><path d="M121.13,61.266a24.726,24.726,0,0,1,8.514-1.721,9.5,9.5,0,0,1,5.805,1.527q2.02,1.527,2.021,5.138V79.326l3.44.86v2.365l-6.665.215-.9-3.01q-3.441,3.44-6.794,3.44a6.833,6.833,0,0,1-5.031-1.677,6.458,6.458,0,0,1-1.677-4.773q0-6.664,9.89-6.665h3.44v-3.44q0-3.87-4.085-3.87a13.01,13.01,0,0,0-3.827.473l-.516.172-.6,3.225h-2.8Zm12.04,11.609h-3.01a9.178,9.178,0,0,0-4.58.839,2.843,2.843,0,0,0-1.354,2.6,3.7,3.7,0,0,0,.8,2.559,2.938,2.938,0,0,0,2.3.882,4.582,4.582,0,0,0,1.483-.258,9.433,9.433,0,0,0,1.462-.645,8.485,8.485,0,0,0,1.269-.839,7.735,7.735,0,0,0,.9-.838l.731-.861Z" transform="translate(-2.04 -1.496)" fill="#003436"/><path d="M151.014,59.976l.387,3.139q3.181-3.57,6.493-3.57a11.214,11.214,0,0,1,3.4.517l.473.128-.215,6.236h-2.8l-.645-3.225a7.581,7.581,0,0,0-6.235,3.354V79.326l4.3,1.074v2.366H143.919V80.4l3.655-1.074V63.416l-3.655-.86V60.19Z" transform="translate(-2.04 -1.496)" fill="#003436"/><path d="M183.909,49.656v29.67l3.655.86v2.365l-7.31.215-.344-2.452a9.641,9.641,0,0,1-7.095,2.882,7.577,7.577,0,0,1-6.428-2.989q-2.257-2.988-2.258-8.277,0-5.634,2.881-9.009t8.514-3.376a12.36,12.36,0,0,1,4.085.688V53.1l-3.655-.86V49.871Zm-4.3,26.875V63.846a9.324,9.324,0,0,0-4.515-.86q-6.45,0-6.449,8.6a11.615,11.615,0,0,0,1.311,5.977,4.4,4.4,0,0,0,4.064,2.194,5.705,5.705,0,0,0,3.568-1.118A9.686,9.686,0,0,0,179.609,76.531Z" transform="translate(-2.04 -1.496)" fill="#003436"/></svg>